<?xml version="1.0" encoding="UTF-8" standalone="no"?>
<!-- Created with Inkscape (http://www.inkscape.org/) -->

<svg
   xmlns:dc="http://purl.org/dc/elements/1.1/"
   xmlns:cc="http://creativecommons.org/ns#"
   xmlns:rdf="http://www.w3.org/1999/02/22-rdf-syntax-ns#"
   xmlns:svg="http://www.w3.org/2000/svg"
   xmlns="http://www.w3.org/2000/svg"
   xmlns:xlink="http://www.w3.org/1999/xlink"
   xmlns:sodipodi="http://sodipodi.sourceforge.net/DTD/sodipodi-0.dtd"
   xmlns:inkscape="http://www.inkscape.org/namespaces/inkscape"
   width="256"
   height="256"
   id="svg4276"
   version="1.1"
   inkscape:version="0.47pre0 r21549"
   sodipodi:docname="Nouveau document 2"
   inkscape:output_extension="org.inkscape.output.svg.inkscape">
  <defs
     id="defs4278">
    <inkscape:perspective
       sodipodi:type="inkscape:persp3d"
       inkscape:vp_x="0 : 526.18109 : 1"
       inkscape:vp_y="0 : 1000 : 0"
       inkscape:vp_z="744.09448 : 526.18109 : 1"
       inkscape:persp3d-origin="372.04724 : 350.78739 : 1"
       id="perspective4284" />
    <inkscape:perspective
       id="perspective4116"
       inkscape:persp3d-origin="0.5 : 0.33333333 : 1"
       inkscape:vp_z="1 : 0.5 : 1"
       inkscape:vp_y="0 : 1000 : 0"
       inkscape:vp_x="0 : 0.5 : 1"
       sodipodi:type="inkscape:persp3d" />
    <radialGradient
       inkscape:collect="always"
       xlink:href="#linearGradient4824"
       id="radialGradient4830"
       cx="15.593588"
       cy="88.653885"
       fx="15.593588"
       fy="88.653885"
       r="114.76744"
       gradientUnits="userSpaceOnUse" />
    <linearGradient
       inkscape:collect="always"
       id="linearGradient4824">
      <stop
         style="stop-color:#ffffff;stop-opacity:1;"
         offset="0"
         id="stop4826" />
      <stop
         style="stop-color:#ffffff;stop-opacity:0;"
         offset="1"
         id="stop4828" />
    </linearGradient>
    <radialGradient
       inkscape:collect="always"
       xlink:href="#linearGradient4824"
       id="radialGradient4838"
       gradientUnits="userSpaceOnUse"
       cx="219.53087"
       cy="98.953751"
       fx="219.53087"
       fy="98.953751"
       r="114.76744" />
    <radialGradient
       inkscape:collect="always"
       xlink:href="#linearGradient4824"
       id="radialGradient4842"
       gradientUnits="userSpaceOnUse"
       cx="117.56223"
       cy="1.6960773"
       fx="117.56223"
       fy="1.6960773"
       r="114.76744"
       gradientTransform="matrix(1.439753,0,0,1,-51.698347,0)" />
    <linearGradient
       inkscape:collect="always"
       xlink:href="#linearGradient4859"
       id="linearGradient4865"
       x1="121.54688"
       y1="-8.986186"
       x2="121.54688"
       y2="143.39191"
       gradientUnits="userSpaceOnUse" />
    <linearGradient
       inkscape:collect="always"
       id="linearGradient4859">
      <stop
         style="stop-color:#ffffff;stop-opacity:1;"
         offset="0"
         id="stop4861" />
      <stop
         style="stop-color:#ffffff;stop-opacity:0;"
         offset="1"
         id="stop4863" />
    </linearGradient>
    <radialGradient
       inkscape:collect="always"
       xlink:href="#linearGradient52920"
       id="radialGradient52928"
       cx="127.41275"
       cy="160.44043"
       fx="127.41275"
       fy="160.44043"
       r="9.3228846"
       gradientUnits="userSpaceOnUse"
       gradientTransform="matrix(2.7499999,2.419496e-6,-1.9062696e-6,2.1666668,-222.972,-187.18084)" />
    <linearGradient
       inkscape:collect="always"
       id="linearGradient52920">
      <stop
         style="stop-color:#ffffff;stop-opacity:1;"
         offset="0"
         id="stop52922" />
      <stop
         style="stop-color:#ffffff;stop-opacity:0;"
         offset="1"
         id="stop52924" />
    </linearGradient>
    <radialGradient
       inkscape:collect="always"
       xlink:href="#linearGradient52920"
       id="radialGradient52974"
       gradientUnits="userSpaceOnUse"
       gradientTransform="matrix(2.7499999,2.419496e-6,-1.9062696e-6,2.1666668,-222.972,-187.18084)"
       cx="127.41275"
       cy="160.44043"
       fx="127.41275"
       fy="160.44043"
       r="9.3228846" />
    <radialGradient
       inkscape:collect="always"
       xlink:href="#linearGradient52920"
       id="radialGradient52978"
       gradientUnits="userSpaceOnUse"
       gradientTransform="matrix(2.7499999,2.419496e-6,-1.9062696e-6,2.1666668,-222.972,-187.18084)"
       cx="127.41275"
       cy="160.44043"
       fx="127.41275"
       fy="160.44043"
       r="9.3228846" />
    <radialGradient
       inkscape:collect="always"
       xlink:href="#linearGradient52920"
       id="radialGradient52982"
       gradientUnits="userSpaceOnUse"
       gradientTransform="matrix(2.7499999,2.419496e-6,-1.9062696e-6,2.1666668,-222.972,-187.18084)"
       cx="127.41275"
       cy="160.44043"
       fx="127.41275"
       fy="160.44043"
       r="9.3228846" />
    <radialGradient
       inkscape:collect="always"
       xlink:href="#linearGradient52920"
       id="radialGradient52986"
       gradientUnits="userSpaceOnUse"
       gradientTransform="matrix(2.7499999,2.419496e-6,-1.9062696e-6,2.1666668,-222.972,-187.18084)"
       cx="127.41275"
       cy="160.44043"
       fx="127.41275"
       fy="160.44043"
       r="9.3228846" />
    <radialGradient
       inkscape:collect="always"
       xlink:href="#linearGradient52920"
       id="radialGradient52990"
       gradientUnits="userSpaceOnUse"
       gradientTransform="matrix(2.7499999,2.419496e-6,-1.9062696e-6,2.1666668,-222.972,-187.18084)"
       cx="127.41275"
       cy="160.44043"
       fx="127.41275"
       fy="160.44043"
       r="9.3228846" />
    <radialGradient
       inkscape:collect="always"
       xlink:href="#linearGradient52920"
       id="radialGradient52994"
       gradientUnits="userSpaceOnUse"
       gradientTransform="matrix(2.7499999,2.419496e-6,-1.9062696e-6,2.1666668,-222.972,-187.18084)"
       cx="127.41275"
       cy="160.44043"
       fx="127.41275"
       fy="160.44043"
       r="9.3228846" />
    <radialGradient
       inkscape:collect="always"
       xlink:href="#linearGradient52920"
       id="radialGradient52998"
       gradientUnits="userSpaceOnUse"
       gradientTransform="matrix(2.7499999,2.419496e-6,-1.9062696e-6,2.1666668,-222.972,-187.18084)"
       cx="127.41275"
       cy="160.44043"
       fx="127.41275"
       fy="160.44043"
       r="9.3228846" />
    <radialGradient
       inkscape:collect="always"
       xlink:href="#linearGradient52920"
       id="radialGradient53002"
       gradientUnits="userSpaceOnUse"
       gradientTransform="matrix(2.7499999,2.419496e-6,-1.9062696e-6,2.1666668,-222.972,-187.18084)"
       cx="127.41275"
       cy="160.44043"
       fx="127.41275"
       fy="160.44043"
       r="9.3228846" />
    <radialGradient
       inkscape:collect="always"
       xlink:href="#linearGradient52920"
       id="radialGradient53006"
       gradientUnits="userSpaceOnUse"
       gradientTransform="matrix(2.7499999,2.419496e-6,-1.9062696e-6,2.1666668,-222.972,-187.18084)"
       cx="127.41275"
       cy="160.44043"
       fx="127.41275"
       fy="160.44043"
       r="9.3228846" />
    <radialGradient
       inkscape:collect="always"
       xlink:href="#linearGradient52920"
       id="radialGradient53010"
       gradientUnits="userSpaceOnUse"
       gradientTransform="matrix(2.7499999,2.419496e-6,-1.9062696e-6,2.1666668,-222.972,-187.18084)"
       cx="127.41275"
       cy="160.44043"
       fx="127.41275"
       fy="160.44043"
       r="9.3228846" />
    <radialGradient
       inkscape:collect="always"
       xlink:href="#linearGradient52920"
       id="radialGradient53014"
       gradientUnits="userSpaceOnUse"
       gradientTransform="matrix(2.7499999,2.419496e-6,-1.9062696e-6,2.1666668,-222.972,-187.18084)"
       cx="127.41275"
       cy="160.44043"
       fx="127.41275"
       fy="160.44043"
       r="9.3228846" />
    <radialGradient
       inkscape:collect="always"
       xlink:href="#linearGradient52920"
       id="radialGradient53018"
       gradientUnits="userSpaceOnUse"
       gradientTransform="matrix(2.7499999,2.419496e-6,-1.9062696e-6,2.1666668,-222.972,-187.18084)"
       cx="127.41275"
       cy="160.44043"
       fx="127.41275"
       fy="160.44043"
       r="9.3228846" />
    <radialGradient
       inkscape:collect="always"
       xlink:href="#linearGradient52920"
       id="radialGradient53022"
       gradientUnits="userSpaceOnUse"
       gradientTransform="matrix(2.7499999,2.419496e-6,-1.9062696e-6,2.1666668,-222.972,-187.18084)"
       cx="127.41275"
       cy="160.44043"
       fx="127.41275"
       fy="160.44043"
       r="9.3228846" />
    <radialGradient
       inkscape:collect="always"
       xlink:href="#linearGradient52920"
       id="radialGradient53026"
       gradientUnits="userSpaceOnUse"
       gradientTransform="matrix(2.7499999,2.419496e-6,-1.9062696e-6,2.1666668,-222.972,-187.18084)"
       cx="127.41275"
       cy="160.44043"
       fx="127.41275"
       fy="160.44043"
       r="9.3228846" />
    <radialGradient
       inkscape:collect="always"
       xlink:href="#linearGradient52920"
       id="radialGradient53030"
       gradientUnits="userSpaceOnUse"
       gradientTransform="matrix(2.7499999,2.419496e-6,-1.9062696e-6,2.1666668,-222.972,-187.18084)"
       cx="127.41275"
       cy="160.44043"
       fx="127.41275"
       fy="160.44043"
       r="9.3228846" />
    <radialGradient
       r="9.3228846"
       fy="160.44043"
       fx="127.41275"
       cy="160.44043"
       cx="127.41275"
       gradientTransform="matrix(2.7499999,2.419496e-6,-1.9062696e-6,2.1666668,-222.972,-187.18084)"
       gradientUnits="userSpaceOnUse"
       id="radialGradient4274"
       xlink:href="#linearGradient52920"
       inkscape:collect="always" />
  </defs>
  <sodipodi:namedview
     id="base"
     pagecolor="#ffffff"
     bordercolor="#666666"
     borderopacity="1.0"
     inkscape:pageopacity="0.0"
     inkscape:pageshadow="2"
     inkscape:zoom="0.35"
     inkscape:cx="375"
     inkscape:cy="520"
     inkscape:document-units="px"
     inkscape:current-layer="layer1"
     showgrid="false"
     inkscape:window-width="832"
     inkscape:window-height="485"
     inkscape:window-x="832"
     inkscape:window-y="539"
     inkscape:window-maximized="0" />
  <metadata
     id="metadata4281">
    <rdf:RDF>
      <cc:Work
         rdf:about="">
        <dc:format>image/svg+xml</dc:format>
        <dc:type
           rdf:resource="http://purl.org/dc/dcmitype/StillImage" />
        <dc:title></dc:title>
      </cc:Work>
    </rdf:RDF>
  </metadata>
  <g
     inkscape:label="Calque 1"
     inkscape:groupmode="layer"
     id="layer1"
     transform="translate(0,-796.36218)">
    <g
       transform="translate(-3.1235624e-4,796.36192)"
       id="g4084">
      <path
         transform="matrix(1.15625,0,0,1.15625,-8.480688,-8.309014)"
         d="m 223.03862,116.46352 c 0,58.253 -47.22339,105.47638 -105.47639,105.47638 -58.252997,0 -105.476384,-47.22338 -105.476384,-105.47638 0,-58.253004 47.223387,-105.476391 105.476384,-105.476391 58.253,0 105.47639,47.223387 105.47639,105.476391 z"
         sodipodi:ry="105.47639"
         sodipodi:rx="105.47639"
         sodipodi:cy="116.46352"
         sodipodi:cx="117.56223"
         id="path4820"
         style="fill:#000000;fill-opacity:1;stroke:none"
         sodipodi:type="arc" />
      <path
         sodipodi:type="arc"
         style="fill:none;stroke:url(#radialGradient4830);stroke-width:18.58210373;stroke-miterlimit:4;stroke-opacity:1;stroke-dasharray:none"
         id="path4822"
         sodipodi:cx="117.56223"
         sodipodi:cy="116.46352"
         sodipodi:rx="105.47639"
         sodipodi:ry="105.47639"
         d="m 223.03862,116.46352 c 0,58.253 -47.22339,105.47638 -105.47639,105.47638 -58.252997,0 -105.476384,-47.22338 -105.476384,-105.47638 0,-58.253004 47.223387,-105.476391 105.476384,-105.476391 58.253,0 105.47639,47.223387 105.47639,105.476391 z"
         transform="matrix(1.0667253,0,0,1.0667253,2.0440348,2.1173465)" />
      <path
         transform="matrix(1.0667253,0,0,1.0667253,2.0440348,2.1173465)"
         d="m 223.03862,116.46352 c 0,58.253 -47.22339,105.47638 -105.47639,105.47638 -58.252997,0 -105.476384,-47.22338 -105.476384,-105.47638 0,-58.253004 47.223387,-105.476391 105.476384,-105.476391 58.253,0 105.47639,47.223387 105.47639,105.476391 z"
         sodipodi:ry="105.47639"
         sodipodi:rx="105.47639"
         sodipodi:cy="116.46352"
         sodipodi:cx="117.56223"
         id="path4836"
         style="fill:none;stroke:url(#radialGradient4838);stroke-width:18.58210373;stroke-miterlimit:4;stroke-opacity:1;stroke-dasharray:none"
         sodipodi:type="arc" />
      <path
         sodipodi:type="arc"
         style="fill:none;stroke:url(#radialGradient4842);stroke-width:18.58210373;stroke-miterlimit:4;stroke-opacity:1;stroke-dasharray:none"
         id="path4840"
         sodipodi:cx="117.56223"
         sodipodi:cy="116.46352"
         sodipodi:rx="105.47639"
         sodipodi:ry="105.47639"
         d="m 223.03862,116.46352 c 0,58.253 -47.22339,105.47638 -105.47639,105.47638 -58.252997,0 -105.476384,-47.22338 -105.476384,-105.47638 0,-58.253004 47.223387,-105.476391 105.476384,-105.476391 58.253,0 105.47639,47.223387 105.47639,105.476391 z"
         transform="matrix(1.0667253,0,0,1.0667253,2.0440348,2.1173465)" />
      <path
         id="path4852"
         d="m 127.84375,29.46875 c -53.526119,0 -96.982465,43.00013 -97.75,96.34375 10.009722,-5.92814 19.733937,-10.88682 25.9375,-13.75 14.283262,-6.59228 49.44541,-6.58732 61.53125,-1.09375 12.08584,5.49356 32.95038,9.88345 43.9375,1.09375 10.98712,-8.7897 8.80204,-16.486588 31.875,-26.375 5.67666,-2.432854 12.40919,-4.644697 19.625,-6.53125 -16.79408,-29.656481 -48.64174,-49.6875 -85.15625,-49.6875 z"
         style="fill:url(#linearGradient4865);fill-opacity:1;stroke:none" />
      <path
         style="fill:#ffffff;fill-opacity:0.75688076;fill-rule:nonzero;stroke:none"
         d="m 107.05404,59.212876 0,-4.176352 0,4.176352 z"
         id="path2276"
         sodipodi:nodetypes="ccc" />
      <path
         transform="matrix(1.5,0,0,1.5,-62.929466,-31.27507)"
         d="m 136.73563,160.44043 c 0,5.14889 -4.17399,9.32288 -9.32288,9.32288 -5.14889,0 -9.32288,-4.17399 -9.32288,-9.32288 0,-5.14889 4.17399,-9.32288 9.32288,-9.32288 5.14889,0 9.32288,4.17399 9.32288,9.32288 z"
         sodipodi:ry="9.3228846"
         sodipodi:rx="9.3228846"
         sodipodi:cy="160.44043"
         sodipodi:cx="127.41275"
         id="path52918"
         style="fill:url(#radialGradient52928);fill-opacity:1;stroke:none"
         sodipodi:type="arc" />
      <path
         sodipodi:type="arc"
         style="fill:url(#radialGradient52974);fill-opacity:1;stroke:none"
         id="path52930"
         sodipodi:cx="127.41275"
         sodipodi:cy="160.44043"
         sodipodi:rx="9.3228846"
         sodipodi:ry="9.3228846"
         d="m 136.73563,160.44043 c 0,5.14889 -4.17399,9.32288 -9.32288,9.32288 -5.14889,0 -9.32288,-4.17399 -9.32288,-9.32288 0,-5.14889 4.17399,-9.32288 9.32288,-9.32288 5.14889,0 9.32288,4.17399 9.32288,9.32288 z"
         transform="matrix(1.5,0,0,1.5,-34.929466,-35.27507)" />
      <path
         transform="matrix(1.5,0,0,1.5,-90.929466,-35.27507)"
         d="m 136.73563,160.44043 c 0,5.14889 -4.17399,9.32288 -9.32288,9.32288 -5.14889,0 -9.32288,-4.17399 -9.32288,-9.32288 0,-5.14889 4.17399,-9.32288 9.32288,-9.32288 5.14889,0 9.32288,4.17399 9.32288,9.32288 z"
         sodipodi:ry="9.3228846"
         sodipodi:rx="9.3228846"
         sodipodi:cy="160.44043"
         sodipodi:cx="127.41275"
         id="path52976"
         style="fill:url(#radialGradient52978);fill-opacity:1;stroke:none"
         sodipodi:type="arc" />
      <path
         sodipodi:type="arc"
         style="fill:url(#radialGradient52982);fill-opacity:1;stroke:none"
         id="path52980"
         sodipodi:cx="127.41275"
         sodipodi:cy="160.44043"
         sodipodi:rx="9.3228846"
         sodipodi:ry="9.3228846"
         d="m 136.73563,160.44043 c 0,5.14889 -4.17399,9.32288 -9.32288,9.32288 -5.14889,0 -9.32288,-4.17399 -9.32288,-9.32288 0,-5.14889 4.17399,-9.32288 9.32288,-9.32288 5.14889,0 9.32288,4.17399 9.32288,9.32288 z"
         transform="matrix(1.5,0,0,1.5,-118.92947,-45.27507)" />
      <path
         transform="matrix(1.5,0,0,1.5,-8.92947,-45.27507)"
         d="m 136.73563,160.44043 c 0,5.14889 -4.17399,9.32288 -9.32288,9.32288 -5.14889,0 -9.32288,-4.17399 -9.32288,-9.32288 0,-5.14889 4.17399,-9.32288 9.32288,-9.32288 5.14889,0 9.32288,4.17399 9.32288,9.32288 z"
         sodipodi:ry="9.3228846"
         sodipodi:rx="9.3228846"
         sodipodi:cy="160.44043"
         sodipodi:cx="127.41275"
         id="path52984"
         style="fill:url(#radialGradient52986);fill-opacity:1;stroke:none"
         sodipodi:type="arc" />
      <path
         sodipodi:type="arc"
         style="fill:url(#radialGradient52990);fill-opacity:1;stroke:none"
         id="path52988"
         sodipodi:cx="127.41275"
         sodipodi:cy="160.44043"
         sodipodi:rx="9.3228846"
         sodipodi:ry="9.3228846"
         d="m 136.73563,160.44043 c 0,5.14889 -4.17399,9.32288 -9.32288,9.32288 -5.14889,0 -9.32288,-4.17399 -9.32288,-9.32288 0,-5.14889 4.17399,-9.32288 9.32288,-9.32288 5.14889,0 9.32288,4.17399 9.32288,9.32288 z"
         transform="matrix(1.5,0,0,1.5,11.07053,-65.27507)" />
      <path
         transform="matrix(1.5,0,0,1.5,-138.92947,-67.27507)"
         d="m 136.73563,160.44043 c 0,5.14889 -4.17399,9.32288 -9.32288,9.32288 -5.14889,0 -9.32288,-4.17399 -9.32288,-9.32288 0,-5.14889 4.17399,-9.32288 9.32288,-9.32288 5.14889,0 9.32288,4.17399 9.32288,9.32288 z"
         sodipodi:ry="9.3228846"
         sodipodi:rx="9.3228846"
         sodipodi:cy="160.44043"
         sodipodi:cx="127.41275"
         id="path52992"
         style="fill:url(#radialGradient52994);fill-opacity:1;stroke:none"
         sodipodi:type="arc" />
      <path
         sodipodi:type="arc"
         style="fill:url(#radialGradient52998);fill-opacity:1;stroke:none"
         id="path52996"
         sodipodi:cx="127.41275"
         sodipodi:cy="160.44043"
         sodipodi:rx="9.3228846"
         sodipodi:ry="9.3228846"
         d="m 136.73563,160.44043 c 0,5.14889 -4.17399,9.32288 -9.32288,9.32288 -5.14889,0 -9.32288,-4.17399 -9.32288,-9.32288 0,-5.14889 4.17399,-9.32288 9.32288,-9.32288 5.14889,0 9.32288,4.17399 9.32288,9.32288 z"
         transform="matrix(1.5,0,0,1.5,-52.92947,-57.27507)" />
      <path
         transform="matrix(1.5,0,0,1.5,-80.92947,-61.27507)"
         d="m 136.73563,160.44043 c 0,5.14889 -4.17399,9.32288 -9.32288,9.32288 -5.14889,0 -9.32288,-4.17399 -9.32288,-9.32288 0,-5.14889 4.17399,-9.32288 9.32288,-9.32288 5.14889,0 9.32288,4.17399 9.32288,9.32288 z"
         sodipodi:ry="9.3228846"
         sodipodi:rx="9.3228846"
         sodipodi:cy="160.44043"
         sodipodi:cx="127.41275"
         id="path53000"
         style="fill:url(#radialGradient53002);fill-opacity:1;stroke:none"
         sodipodi:type="arc" />
      <path
         sodipodi:type="arc"
         style="fill:url(#radialGradient53006);fill-opacity:1;stroke:none"
         id="path53004"
         sodipodi:cx="127.41275"
         sodipodi:cy="160.44043"
         sodipodi:rx="9.3228846"
         sodipodi:ry="9.3228846"
         d="m 136.73563,160.44043 c 0,5.14889 -4.17399,9.32288 -9.32288,9.32288 -5.14889,0 -9.32288,-4.17399 -9.32288,-9.32288 0,-5.14889 4.17399,-9.32288 9.32288,-9.32288 5.14889,0 9.32288,4.17399 9.32288,9.32288 z"
         transform="matrix(1.5,0,0,1.5,-108.92947,-71.27507)" />
      <path
         transform="matrix(1.5,0,0,1.5,-26.92947,-65.27507)"
         d="m 136.73563,160.44043 c 0,5.14889 -4.17399,9.32288 -9.32288,9.32288 -5.14889,0 -9.32288,-4.17399 -9.32288,-9.32288 0,-5.14889 4.17399,-9.32288 9.32288,-9.32288 5.14889,0 9.32288,4.17399 9.32288,9.32288 z"
         sodipodi:ry="9.3228846"
         sodipodi:rx="9.3228846"
         sodipodi:cy="160.44043"
         sodipodi:cx="127.41275"
         id="path53008"
         style="fill:url(#radialGradient53010);fill-opacity:1;stroke:none"
         sodipodi:type="arc" />
      <path
         sodipodi:type="arc"
         style="fill:url(#radialGradient53014);fill-opacity:1;stroke:none"
         id="path53012"
         sodipodi:cx="127.41275"
         sodipodi:cy="160.44043"
         sodipodi:rx="9.3228846"
         sodipodi:ry="9.3228846"
         d="m 136.73563,160.44043 c 0,5.14889 -4.17399,9.32288 -9.32288,9.32288 -5.14889,0 -9.32288,-4.17399 -9.32288,-9.32288 0,-5.14889 4.17399,-9.32288 9.32288,-9.32288 5.14889,0 9.32288,4.17399 9.32288,9.32288 z"
         transform="matrix(1.5,0,0,1.5,-8.92947,-87.27507)" />
      <path
         transform="matrix(1.5,0,0,1.5,-46.92947,-85.27507)"
         d="m 136.73563,160.44043 c 0,5.14889 -4.17399,9.32288 -9.32288,9.32288 -5.14889,0 -9.32288,-4.17399 -9.32288,-9.32288 0,-5.14889 4.17399,-9.32288 9.32288,-9.32288 5.14889,0 9.32288,4.17399 9.32288,9.32288 z"
         sodipodi:ry="9.3228846"
         sodipodi:rx="9.3228846"
         sodipodi:cy="160.44043"
         sodipodi:cx="127.41275"
         id="path53016"
         style="fill:url(#radialGradient53018);fill-opacity:1;stroke:none"
         sodipodi:type="arc" />
      <path
         sodipodi:type="arc"
         style="fill:url(#radialGradient53022);fill-opacity:1;stroke:none"
         id="path53020"
         sodipodi:cx="127.41275"
         sodipodi:cy="160.44043"
         sodipodi:rx="9.3228846"
         sodipodi:ry="9.3228846"
         d="m 136.73563,160.44043 c 0,5.14889 -4.17399,9.32288 -9.32288,9.32288 -5.14889,0 -9.32288,-4.17399 -9.32288,-9.32288 0,-5.14889 4.17399,-9.32288 9.32288,-9.32288 5.14889,0 9.32288,4.17399 9.32288,9.32288 z"
         transform="matrix(1.5,0,0,1.5,-74.92947,-89.27507)" />
      <path
         transform="matrix(1.5,0,0,1.5,-56.92947,-111.27507)"
         d="m 136.73563,160.44043 c 0,5.14889 -4.17399,9.32288 -9.32288,9.32288 -5.14889,0 -9.32288,-4.17399 -9.32288,-9.32288 0,-5.14889 4.17399,-9.32288 9.32288,-9.32288 5.14889,0 9.32288,4.17399 9.32288,9.32288 z"
         sodipodi:ry="9.3228846"
         sodipodi:rx="9.3228846"
         sodipodi:cy="160.44043"
         sodipodi:cx="127.41275"
         id="path53024"
         style="fill:url(#radialGradient53026);fill-opacity:1;stroke:none"
         sodipodi:type="arc" />
      <path
         sodipodi:type="arc"
         style="fill:url(#radialGradient4274);fill-opacity:1;stroke:none"
         id="path53028"
         sodipodi:cx="127.41275"
         sodipodi:cy="160.44043"
         sodipodi:rx="9.3228846"
         sodipodi:ry="9.3228846"
         d="m 136.73563,160.44043 c 0,5.14889 -4.17399,9.32288 -9.32288,9.32288 -5.14889,0 -9.32288,-4.17399 -9.32288,-9.32288 0,-5.14889 4.17399,-9.32288 9.32288,-9.32288 5.14889,0 9.32288,4.17399 9.32288,9.32288 z"
         transform="matrix(1.5,0,0,1.5,-28.92947,-109.27507)" />
    </g>
  </g>
</svg>
